HIERARCHY
ROOT Hips
{
	OFFSET 0.000000 0.000000 0.000000
	CHANNELS 6 Xposition Yposition Zposition Xrotation Yrotation Zrotation
	JOINT LeftUpLeg_virtual
	{
		OFFSET 0.000000 0.000000 0.000000
		CHANNELS 3 Xrotation Yrotation Zrotation
		JOINT LeftUpLeg
		{
			OFFSET 11.394100 -6.187798 -0.413800
			CHANNELS 3 Xrotation Yrotation Zrotation
			JOINT LeftLeg
			{
				OFFSET 0.430247 -32.302673 3.732800
				CHANNELS 3 Xrotation Yrotation Zrotation
				JOINT LeftFoot
				{
					OFFSET -0.430247 -48.264931 -6.423300
					CHANNELS 3 Xrotation Yrotation Zrotation
					JOINT LeftToeBase
					{
						OFFSET 4.230900 -16.068199 23.438400
						CHANNELS 3 Xrotation Yrotation Zrotation
						JOINT LeftToe_End
						{
							OFFSET 4.510700 0.695400 19.974600
							CHANNELS 3 Xrotation Yrotation Zrotation
							End Site
							{
								OFFSET 0 0 0
							}
						}
					}
				}
			}
		}
	}
	JOINT RightUpLeg_virtual
	{
		OFFSET 0.000000 0.000000 0.000000
		CHANNELS 3 Xrotation Yrotation Zrotation
		JOINT RightUpLeg
		{
			OFFSET -11.333700 -6.187798 -0.413800
			CHANNELS 3 Xrotation Yrotation Zrotation
			JOINT RightLeg
			{
				OFFSET -0.430392 -32.302628 3.733000
				CHANNELS 3 Xrotation Yrotation Zrotation
				JOINT RightFoot
				{
					OFFSET 0.430392 -48.264973 -6.423500
					CHANNELS 3 Xrotation Yrotation Zrotation
					JOINT RightToeBase
					{
						OFFSET -4.230900 -16.068199 23.438400
						CHANNELS 3 Xrotation Yrotation Zrotation
						JOINT RightToe_End
						{
							OFFSET -4.510700 0.695400 19.974600
							CHANNELS 3 Xrotation Yrotation Zrotation
							End Site
							{
								OFFSET 0 0 0
							}
						}
					}
				}
			}
		}
	}
	JOINT Spine_virtual
	{
		OFFSET 0.000000 0.000000 0.000000
		CHANNELS 3 Xrotation Yrotation Zrotation
		JOINT Spine
		{
			OFFSET -0.002400 12.777504 0.315300
			CHANNELS 3 Xrotation Yrotation Zrotation
			JOINT Spine1
			{
				OFFSET -0.002067 5.816869 0.032633
				CHANNELS 3 Xrotation Yrotation Zrotation
				JOINT Spine1_split
				{
					OFFSET -0.002067 5.816869 0.032633
					CHANNELS 3 Xrotation Yrotation Zrotation
					JOINT Spine2
					{
						OFFSET -0.002067 5.816869 0.032633
						CHANNELS 3 Xrotation Yrotation Zrotation
						JOINT Neck_virtual
						{
							OFFSET 0.000000 0.000000 0.000000
							CHANNELS 3 Xrotation Yrotation Zrotation
							JOINT Neck
							{
								OFFSET -0.003700 21.199493 -0.826900
								CHANNELS 3 Xrotation Yrotation Zrotation
								JOINT Head
								{
									OFFSET 0.000000 20.442200 4.834800
									CHANNELS 3 Xrotation Yrotation Zrotation
									JOINT HeadTop_End
									{
										OFFSET 0.000000 34.668396 4.968400
										CHANNELS 3 Xrotation Yrotation Zrotation
										End Site
										{
											OFFSET 0 0 0
										}
									}
								}
							}
						}
						JOINT LeftShoulder_virtual
						{
							OFFSET 0.000000 0.000000 0.000000
							CHANNELS 3 Xrotation Yrotation Zrotation
							JOINT LeftShoulder
							{
								OFFSET 3.288150 8.794197 -1.372250
								CHANNELS 3 Xrotation Yrotation Zrotation
								JOINT LeftShoulder_split
								{
									OFFSET 3.288150 8.794197 -1.372250
									CHANNELS 3 Xrotation Yrotation Zrotation
									JOINT LeftArm
									{
										OFFSET 11.953299 -2.279007 -0.146200
										CHANNELS 3 Xrotation Yrotation Zrotation
										JOINT LeftForeArm
										{
											OFFSET 18.448900 0.000000 0.000000
											CHANNELS 3 Xrotation Yrotation Zrotation
											JOINT LeftHand
											{
												OFFSET 29.527798 0.000000 0.000000
												CHANNELS 3 Xrotation Yrotation Zrotation
												End Site
												{
													OFFSET 0 0 0
												}
											}
										}
									}
								}
							}
						}
						JOINT RightShoulder_virtual
						{
							OFFSET 0.000000 0.000000 0.000000
							CHANNELS 3 Xrotation Yrotation Zrotation
							JOINT RightShoulder
							{
								OFFSET -3.249400 8.794197 -1.372250
								CHANNELS 3 Xrotation Yrotation Zrotation
								JOINT RightShoulder_split
								{
									OFFSET -3.249400 8.794197 -1.372250
									CHANNELS 3 Xrotation Yrotation Zrotation
									JOINT RightArm
									{
										OFFSET -11.953299 -2.279007 -0.146200
										CHANNELS 3 Xrotation Yrotation Zrotation
										JOINT RightForeArm
										{
											OFFSET -18.448900 0.000000 0.000000
											CHANNELS 3 Xrotation Yrotation Zrotation
											JOINT RightHand
											{
												OFFSET -29.527802 0.000000 0.000000
												CHANNELS 3 Xrotation Yrotation Zrotation
												End Site
												{
													OFFSET 0 0 0
												}
											}
										}
									}
								}
							}
						}
					}
				}
			}
		}
	}
}
MOTION
Frames: 4
Frame Time: 0.03333333
0.000550 41.823303 2.509483 0.000000 0.000000 0.000000 72.664777 -1.763185 -1.111707 7.235786 11.584546 1.556103 0.177884 8.904674 2.387621 -40.459206 4.949065 -9.231387 -27.645846 0.926575 -11.619032 0.000000 0.000000 0.000000 72.664777 -1.763185 -1.111707 0.143884 -7.667859 -2.593862 11.191180 -0.989348 -1.639859 -35.677319 -4.959748 10.180903 -40.262657 -1.575022 8.278298 0.000000 0.000000 0.000000 72.664777 -1.763185 -1.111707 0.751984 -0.168347 0.333749 1.989890 -0.361036 0.703952 0.000000 0.000000 0.000000 0.000000 0.000000 0.000000 1.989557 -0.369635 0.705793 -9.204231 -0.704416 3.164577 0.129149 2.292098 -4.360971 0.000000 0.000000 0.000000 1.989557 -0.369635 0.705793 1.107181 -1.022676 0.366517 0.000000 0.000000 0.000000 -53.198137 -52.390198 -60.733783 0.000003 -9.465324 0.000004 0.000000 0.000000 0.000000 1.989557 -0.369635 0.705793 1.721910 3.722436 14.170256 0.000000 0.000000 0.000000 -57.852959 62.510424 58.216339 -0.000001 10.622209 0.000001 0.000000 0.000000 0.000000 
-0.031712 41.914295 2.468750 0.000000 0.000000 0.000000 72.721277 -1.768632 -1.113990 7.216471 11.557103 1.540338 -0.016484 9.028530 2.415548 -40.440946 4.925304 -9.189710 -27.671301 0.896776 -11.414928 0.000000 0.000000 0.000000 72.721277 -1.768632 -1.113990 0.040499 -7.640480 -2.549574 11.169807 -1.084323 -1.630833 -35.693004 -4.939711 10.126040 -40.112086 -1.574276 8.347214 0.000000 0.000000 0.000000 72.721277 -1.768632 -1.113990 0.778679 -0.164209 0.319361 2.046987 -0.353058 0.686805 0.000000 0.000000 0.000000 0.000000 0.000000 0.000000 2.059573 -0.360988 0.690020 -9.236192 -0.710650 3.176451 0.030643 2.283026 -4.346892 0.000000 0.000000 0.000000 2.059573 -0.360988 0.690020 1.109436 -1.047179 0.617681 0.000000 0.000000 0.000000 -53.300235 -52.427258 -60.726140 -0.000016 -9.495818 0.000001 0.000000 0.000000 0.000000 2.059573 -0.360988 0.690020 1.608453 4.068151 14.154887 0.000000 0.000000 0.000000 -56.074747 61.951646 56.389198 0.000006 12.166835 -0.000009 0.000000 0.000000 0.000000 
-0.075360 42.026493 2.422226 0.000000 0.000000 0.000000 72.788308 -1.750151 -1.087392 7.344391 11.491653 1.459514 -0.503648 9.133834 2.480621 -40.302214 4.882483 -9.148808 -27.808980 0.846242 -11.068182 0.000000 0.000000 0.000000 72.788308 -1.750151 -1.087392 -0.109739 -7.591604 -2.526681 11.178291 -1.179736 -1.635537 -35.702891 -4.920549 10.078587 -40.011648 -1.573678 8.367760 0.000000 0.000000 0.000000 72.788308 -1.750151 -1.087392 0.816224 -0.164294 0.283801 2.128594 -0.354853 0.658856 0.000000 0.000000 0.000000 0.000000 0.000000 0.000000 2.179335 -0.360896 0.666011 -9.248155 -0.714647 3.184085 -0.052984 2.276825 -4.318974 0.000000 0.000000 0.000000 2.179335 -0.360896 0.666011 1.132606 -1.210563 1.194274 0.000000 0.000000 0.000000 -52.684487 -52.210560 -60.149747 -0.000005 -10.381179 -0.000001 0.000000 0.000000 0.000000 2.179335 -0.360896 0.666011 1.294705 4.985075 14.076853 0.000000 0.000000 0.000000 -51.857327 60.370560 52.223971 0.000007 15.798716 -0.000027 0.000000 0.000000 0.000000 
-0.131687 42.155266 2.369942 0.000000 0.000000 0.000000 72.857560 -1.719527 -1.030760 7.672148 11.426102 1.316360 -1.350380 9.147041 2.556066 -40.034911 4.817923 -9.112535 -27.925799 0.797063 -10.728153 0.000000 0.000000 0.000000 72.857560 -1.719527 -1.030760 -0.287619 -7.538776 -2.529363 11.202617 -1.253946 -1.641232 -35.717907 -4.898071 10.024810 -39.938387 -1.576973 8.350635 0.000000 0.000000 0.000000 72.857560 -1.719527 -1.030760 0.861515 -0.169817 0.226587 2.229997 -0.368385 0.618093 0.000000 0.000000 0.000000 0.000000 0.000000 0.000000 2.342993 -0.371417 0.631637 -9.245377 -0.722172 3.187861 -0.129928 2.246350 -4.258134 0.000000 0.000000 0.000000 2.342993 -0.371417 0.631637 1.173335 -1.417818 2.041882 0.000000 0.000000 0.000000 -51.809874 -51.949702 -59.390373 0.000003 -11.541094 0.000005 0.000000 0.000000 0.000000 2.342993 -0.371417 0.631637 0.820152 6.380144 13.917257 0.000000 0.000000 0.000000 -47.113450 58.088368 47.525430 -0.000003 20.058001 -0.000004 0.000000 0.000000 0.000000 
